<svg id="visual" viewBox="0 0 900 150" width="900" height="150" xmlns="http://www.w3.org/2000/svg" xmlns:xlink="http://www.w3.org/1999/xlink" version="1.1"><rect x="0" y="0" width="900" height="150" fill="#FFF"></rect><path d="M0 112L18.8 111C37.7 110 75.3 108 112.8 105.7C150.3 103.3 187.7 100.7 225.2 102.8C262.7 105 300.3 112 337.8 114.8C375.3 117.7 412.7 116.3 450.2 114.8C487.7 113.3 525.3 111.7 562.8 109.3C600.3 107 637.7 104 675.2 103.5C712.7 103 750.3 105 787.8 106.7C825.3 108.3 862.7 109.7 881.3 110.3L900 111L900 0L881.3 0C862.7 0 825.3 0 787.8 0C750.3 0 712.7 0 675.2 0C637.7 0 600.3 0 562.8 0C525.3 0 487.7 0 450.2 0C412.7 0 375.3 0 337.8 0C300.3 0 262.7 0 225.2 0C187.7 0 150.3 0 112.8 0C75.3 0 37.7 0 18.8 0L0 0Z" fill="#eeeeee"></path><path d="M0 86L18.8 86.2C37.7 86.3 75.3 86.7 112.8 88.3C150.3 90 187.7 93 225.2 96C262.7 99 300.3 102 337.8 101.3C375.3 100.7 412.7 96.3 450.2 93.8C487.7 91.3 525.3 90.7 562.8 90.5C600.3 90.3 637.7 90.7 675.2 89.3C712.7 88 750.3 85 787.8 84C825.3 83 862.7 84 881.3 84.5L900 85L900 0L881.3 0C862.7 0 825.3 0 787.8 0C750.3 0 712.7 0 675.2 0C637.7 0 600.3 0 562.8 0C525.3 0 487.7 0 450.2 0C412.7 0 375.3 0 337.8 0C300.3 0 262.7 0 225.2 0C187.7 0 150.3 0 112.8 0C75.3 0 37.7 0 18.8 0L0 0Z" fill="#dbdbdb"></path><path d="M0 86L18.8 88.8C37.7 91.7 75.3 97.3 112.8 98.8C150.3 100.3 187.7 97.7 225.2 95.3C262.7 93 300.3 91 337.8 88.2C375.3 85.3 412.7 81.7 450.2 82.8C487.7 84 525.3 90 562.8 90C600.3 90 637.7 84 675.2 83C712.7 82 750.3 86 787.8 89.7C825.3 93.3 862.7 96.7 881.3 98.3L900 100L900 0L881.3 0C862.7 0 825.3 0 787.8 0C750.3 0 712.7 0 675.2 0C637.7 0 600.3 0 562.8 0C525.3 0 487.7 0 450.2 0C412.7 0 375.3 0 337.8 0C300.3 0 262.7 0 225.2 0C187.7 0 150.3 0 112.8 0C75.3 0 37.7 0 18.8 0L0 0Z" fill="#c9c9c9"></path><path d="M0 90L18.8 89C37.7 88 75.3 86 112.8 85.5C150.3 85 187.7 86 225.2 84.5C262.7 83 300.3 79 337.8 78.3C375.3 77.7 412.7 80.3 450.2 79.7C487.7 79 525.3 75 562.8 74.7C600.3 74.3 637.7 77.7 675.2 77.5C712.7 77.3 750.3 73.7 787.8 74.2C825.3 74.7 862.7 79.3 881.3 81.7L900 84L900 0L881.3 0C862.7 0 825.3 0 787.8 0C750.3 0 712.7 0 675.2 0C637.7 0 600.3 0 562.8 0C525.3 0 487.7 0 450.2 0C412.7 0 375.3 0 337.8 0C300.3 0 262.7 0 225.2 0C187.7 0 150.3 0 112.8 0C75.3 0 37.7 0 18.8 0L0 0Z" fill="#b7b7b7"></path><path d="M0 64L18.8 65.8C37.7 67.7 75.3 71.3 112.8 70.5C150.3 69.7 187.7 64.3 225.2 61.8C262.7 59.3 300.3 59.7 337.8 61.3C375.3 63 412.7 66 450.2 67.7C487.7 69.3 525.3 69.7 562.8 71.7C600.3 73.7 637.7 77.3 675.2 75.5C712.7 73.7 750.3 66.3 787.8 63.2C825.3 60 862.7 61 881.3 61.5L900 62L900 0L881.3 0C862.7 0 825.3 0 787.8 0C750.3 0 712.7 0 675.2 0C637.7 0 600.3 0 562.8 0C525.3 0 487.7 0 450.2 0C412.7 0 375.3 0 337.8 0C300.3 0 262.7 0 225.2 0C187.7 0 150.3 0 112.8 0C75.3 0 37.7 0 18.8 0L0 0Z" fill="#a5a5a5"></path><path d="M0 60L18.8 62C37.7 64 75.3 68 112.8 67.2C150.3 66.3 187.7 60.7 225.2 57.5C262.7 54.3 300.3 53.7 337.8 53.3C375.3 53 412.7 53 450.2 55.5C487.7 58 525.3 63 562.8 65.2C600.3 67.3 637.7 66.7 675.2 67.3C712.7 68 750.3 70 787.8 69.3C825.3 68.7 862.7 65.3 881.3 63.7L900 62L900 0L881.3 0C862.7 0 825.3 0 787.8 0C750.3 0 712.7 0 675.2 0C637.7 0 600.3 0 562.8 0C525.3 0 487.7 0 450.2 0C412.7 0 375.3 0 337.8 0C300.3 0 262.7 0 225.2 0C187.7 0 150.3 0 112.8 0C75.3 0 37.7 0 18.8 0L0 0Z" fill="#949494"></path><path d="M0 50L18.8 49.7C37.7 49.3 75.3 48.7 112.8 48.7C150.3 48.7 187.7 49.3 225.2 50.7C262.7 52 300.3 54 337.8 54.3C375.3 54.7 412.7 53.3 450.2 53.8C487.7 54.3 525.3 56.7 562.8 56C600.3 55.3 637.7 51.7 675.2 51C712.7 50.3 750.3 52.7 787.8 52C825.3 51.3 862.7 47.7 881.3 45.8L900 44L900 0L881.3 0C862.7 0 825.3 0 787.8 0C750.3 0 712.7 0 675.2 0C637.7 0 600.3 0 562.8 0C525.3 0 487.7 0 450.2 0C412.7 0 375.3 0 337.8 0C300.3 0 262.7 0 225.2 0C187.7 0 150.3 0 112.8 0C75.3 0 37.7 0 18.8 0L0 0Z" fill="#828282"></path><path d="M0 48L18.8 47.3C37.7 46.7 75.3 45.3 112.8 45.5C150.3 45.7 187.7 47.3 225.2 47.7C262.7 48 300.3 47 337.8 47.5C375.3 48 412.7 50 450.2 48.3C487.7 46.7 525.3 41.3 562.8 39.8C600.3 38.3 637.7 40.7 675.2 42.2C712.7 43.7 750.3 44.3 787.8 44.7C825.3 45 862.7 45 881.3 45L900 45L900 0L881.3 0C862.7 0 825.3 0 787.8 0C750.3 0 712.7 0 675.2 0C637.7 0 600.3 0 562.8 0C525.3 0 487.7 0 450.2 0C412.7 0 375.3 0 337.8 0C300.3 0 262.7 0 225.2 0C187.7 0 150.3 0 112.8 0C75.3 0 37.7 0 18.8 0L0 0Z" fill="#727272"></path><path d="M0 38L18.8 38.7C37.7 39.3 75.3 40.7 112.8 41C150.3 41.3 187.7 40.7 225.2 39.5C262.7 38.3 300.3 36.7 337.8 35.7C375.3 34.7 412.7 34.3 450.2 34C487.7 33.7 525.3 33.3 562.8 34.3C600.3 35.3 637.7 37.7 675.2 39.3C712.7 41 750.3 42 787.8 40.5C825.3 39 862.7 35 881.3 33L900 31L900 0L881.3 0C862.7 0 825.3 0 787.8 0C750.3 0 712.7 0 675.2 0C637.7 0 600.3 0 562.8 0C525.3 0 487.7 0 450.2 0C412.7 0 375.3 0 337.8 0C300.3 0 262.7 0 225.2 0C187.7 0 150.3 0 112.8 0C75.3 0 37.7 0 18.8 0L0 0Z" fill="#616161"></path><path d="M0 25L18.8 25.8C37.7 26.7 75.3 28.3 112.8 27.8C150.3 27.3 187.7 24.7 225.2 23.7C262.7 22.7 300.3 23.3 337.8 25.2C375.3 27 412.7 30 450.2 31.2C487.7 32.3 525.3 31.7 562.8 30.8C600.3 30 637.7 29 675.2 29.2C712.7 29.3 750.3 30.7 787.8 31.7C825.3 32.7 862.7 33.3 881.3 33.7L900 34L900 0L881.3 0C862.7 0 825.3 0 787.8 0C750.3 0 712.7 0 675.2 0C637.7 0 600.3 0 562.8 0C525.3 0 487.7 0 450.2 0C412.7 0 375.3 0 337.8 0C300.3 0 262.7 0 225.2 0C187.7 0 150.3 0 112.8 0C75.3 0 37.7 0 18.8 0L0 0Z" fill="#515151"></path><path d="M0 21L18.8 20.3C37.7 19.7 75.3 18.3 112.8 18.7C150.3 19 187.7 21 225.2 20.5C262.7 20 300.3 17 337.8 16.5C375.3 16 412.7 18 450.2 18.8C487.7 19.7 525.3 19.3 562.8 19.2C600.3 19 637.7 19 675.2 19.3C712.7 19.7 750.3 20.3 787.8 20C825.3 19.7 862.7 18.3 881.3 17.7L900 17L900 0L881.3 0C862.7 0 825.3 0 787.8 0C750.3 0 712.7 0 675.2 0C637.7 0 600.3 0 562.8 0C525.3 0 487.7 0 450.2 0C412.7 0 375.3 0 337.8 0C300.3 0 262.7 0 225.2 0C187.7 0 150.3 0 112.8 0C75.3 0 37.7 0 18.8 0L0 0Z" fill="#424242"></path><path d="M0 10L18.8 9.3C37.7 8.7 75.3 7.3 112.8 8.2C150.3 9 187.7 12 225.2 12.2C262.7 12.3 300.3 9.7 337.8 8.2C375.3 6.7 412.7 6.3 450.2 7C487.7 7.7 525.3 9.3 562.8 10.5C600.3 11.7 637.7 12.3 675.2 11.7C712.7 11 750.3 9 787.8 8.7C825.3 8.3 862.7 9.7 881.3 10.3L900 11L900 0L881.3 0C862.7 0 825.3 0 787.8 0C750.3 0 712.7 0 675.2 0C637.7 0 600.3 0 562.8 0C525.3 0 487.7 0 450.2 0C412.7 0 375.3 0 337.8 0C300.3 0 262.7 0 225.2 0C187.7 0 150.3 0 112.8 0C75.3 0 37.7 0 18.8 0L0 0Z" fill="#333333"></path></svg>