<svg id="visual" viewBox="0 0 960 300" width="960" height="300" xmlns="http://www.w3.org/2000/svg" xmlns:xlink="http://www.w3.org/1999/xlink" version="1.1"><rect x="0" y="0" width="960" height="300" fill="#FFF"></rect><path d="M0 103L20 106.8C40 110.7 80 118.3 120 118.8C160 119.3 200 112.7 240 113.2C280 113.7 320 121.3 360 116.5C400 111.7 440 94.3 480 97.3C520 100.3 560 123.7 600 120.2C640 116.7 680 86.3 720 82.7C760 79 800 102 840 108.8C880 115.7 920 106.3 940 101.7L960 97L960 301L940 301C920 301 880 301 840 301C800 301 760 301 720 301C680 301 640 301 600 301C560 301 520 301 480 301C440 301 400 301 360 301C320 301 280 301 240 301C200 301 160 301 120 301C80 301 40 301 20 301L0 301Z" fill="#fe8c2a"></path><path d="M0 220L20 224.7C40 229.3 80 238.7 120 241.8C160 245 200 242 240 229C280 216 320 193 360 193.7C400 194.3 440 218.7 480 228.8C520 239 560 235 600 220.3C640 205.7 680 180.3 720 180.8C760 181.3 800 207.7 840 215.5C880 223.3 920 212.7 940 207.3L960 202L960 301L940 301C920 301 880 301 840 301C800 301 760 301 720 301C680 301 640 301 600 301C560 301 520 301 480 301C440 301 400 301 360 301C320 301 280 301 240 301C200 301 160 301 120 301C80 301 40 301 20 301L0 301Z" fill="#333333"></path></svg>