<svg id="visual" viewBox="0 0 900 75" width="900" height="75" xmlns="http://www.w3.org/2000/svg" xmlns:xlink="http://www.w3.org/1999/xlink" version="1.1"><rect x="0" y="0" width="900" height="75" fill="#FFFFFF"></rect><path d="M0 48L12.5 45C25 42 50 36 75 35.3C100 34.7 125 39.3 150 39.5C175 39.7 200 35.3 225 36C250 36.7 275 42.3 300 44.2C325 46 350 44 375 39.7C400 35.3 425 28.7 450 27.3C475 26 500 30 525 31C550 32 575 30 600 31.7C625 33.3 650 38.7 675 42.3C700 46 725 48 750 44.3C775 40.7 800 31.3 825 26.7C850 22 875 22 887.5 22L900 22L900 76L887.5 76C875 76 850 76 825 76C800 76 775 76 750 76C725 76 700 76 675 76C650 76 625 76 600 76C575 76 550 76 525 76C500 76 475 76 450 76C425 76 400 76 375 76C350 76 325 76 300 76C275 76 250 76 225 76C200 76 175 76 150 76C125 76 100 76 75 76C50 76 25 76 12.5 76L0 76Z" fill="#FE8C2A" stroke-linecap="round" stroke-linejoin="miter"></path></svg>