<svg id="visual" viewBox="0 0 960 150" width="960" height="150" xmlns="http://www.w3.org/2000/svg" xmlns:xlink="http://www.w3.org/1999/xlink" version="1.1"><rect x="0" y="0" width="960" height="150" fill="#FFFFFF"></rect><path d="M0 109L22.8 105.3C45.7 101.7 91.3 94.3 137 96.3C182.7 98.3 228.3 109.7 274 114.7C319.7 119.7 365.3 118.3 411.2 111.2C457 104 503 91 548.8 85.7C594.7 80.3 640.3 82.7 686 87C731.7 91.3 777.3 97.7 823 102.2C868.7 106.7 914.3 109.3 937.2 110.7L960 112L960 0L937.2 0C914.3 0 868.7 0 823 0C777.3 0 731.7 0 686 0C640.3 0 594.7 0 548.8 0C503 0 457 0 411.2 0C365.3 0 319.7 0 274 0C228.3 0 182.7 0 137 0C91.3 0 45.7 0 22.8 0L0 0Z" fill="#eeeeee"></path><path d="M0 84L22.8 87C45.7 90 91.3 96 137 92.7C182.7 89.3 228.3 76.7 274 73.3C319.7 70 365.3 76 411.2 79.7C457 83.3 503 84.7 548.8 83.5C594.7 82.3 640.3 78.7 686 79.7C731.7 80.7 777.3 86.3 823 88C868.7 89.7 914.3 87.3 937.2 86.2L960 85L960 0L937.2 0C914.3 0 868.7 0 823 0C777.3 0 731.7 0 686 0C640.3 0 594.7 0 548.8 0C503 0 457 0 411.2 0C365.3 0 319.7 0 274 0C228.3 0 182.7 0 137 0C91.3 0 45.7 0 22.8 0L0 0Z" fill="#cccccc"></path><path d="M0 62L22.8 64C45.7 66 91.3 70 137 71.2C182.7 72.3 228.3 70.7 274 66.8C319.7 63 365.3 57 411.2 54.8C457 52.7 503 54.3 548.8 56.5C594.7 58.7 640.3 61.3 686 61C731.7 60.7 777.3 57.3 823 59.8C868.7 62.3 914.3 70.7 937.2 74.8L960 79L960 0L937.2 0C914.3 0 868.7 0 823 0C777.3 0 731.7 0 686 0C640.3 0 594.7 0 548.8 0C503 0 457 0 411.2 0C365.3 0 319.7 0 274 0C228.3 0 182.7 0 137 0C91.3 0 45.7 0 22.8 0L0 0Z" fill="#aaaaaa"></path><path d="M0 42L22.8 41.8C45.7 41.7 91.3 41.3 137 41.5C182.7 41.7 228.3 42.3 274 46.5C319.7 50.7 365.3 58.3 411.2 62.3C457 66.3 503 66.7 548.8 65.7C594.7 64.7 640.3 62.3 686 62.2C731.7 62 777.3 64 823 62.5C868.7 61 914.3 56 937.2 53.5L960 51L960 0L937.2 0C914.3 0 868.7 0 823 0C777.3 0 731.7 0 686 0C640.3 0 594.7 0 548.8 0C503 0 457 0 411.2 0C365.3 0 319.7 0 274 0C228.3 0 182.7 0 137 0C91.3 0 45.7 0 22.8 0L0 0Z" fill="#8a8a8a"></path><path d="M0 28L22.8 29C45.7 30 91.3 32 137 33.5C182.7 35 228.3 36 274 38.5C319.7 41 365.3 45 411.2 43.3C457 41.7 503 34.3 548.8 34.2C594.7 34 640.3 41 686 44C731.7 47 777.3 46 823 44.2C868.7 42.3 914.3 39.7 937.2 38.3L960 37L960 0L937.2 0C914.3 0 868.7 0 823 0C777.3 0 731.7 0 686 0C640.3 0 594.7 0 548.8 0C503 0 457 0 411.2 0C365.3 0 319.7 0 274 0C228.3 0 182.7 0 137 0C91.3 0 45.7 0 22.8 0L0 0Z" fill="#6b6b6b"></path><path d="M0 14L22.8 14C45.7 14 91.3 14 137 14C182.7 14 228.3 14 274 13.8C319.7 13.7 365.3 13.3 411.2 15C457 16.7 503 20.3 548.8 19.8C594.7 19.3 640.3 14.7 686 14.7C731.7 14.7 777.3 19.3 823 20.3C868.7 21.3 914.3 18.7 937.2 17.3L960 16L960 0L937.2 0C914.3 0 868.7 0 823 0C777.3 0 731.7 0 686 0C640.3 0 594.7 0 548.8 0C503 0 457 0 411.2 0C365.3 0 319.7 0 274 0C228.3 0 182.7 0 137 0C91.3 0 45.7 0 22.8 0L0 0Z" fill="#4e4e4e"></path></svg>