<svg id="visual" viewBox="0 0 900 100" width="900" height="100" xmlns="http://www.w3.org/2000/svg" xmlns:xlink="http://www.w3.org/1999/xlink" version="1.1"><rect x="0" y="0" width="900" height="100" fill="#4E4E4E"></rect><path d="M0 35L21.5 35.8C43 36.7 86 38.3 128.8 38.8C171.7 39.3 214.3 38.7 257.2 36.8C300 35 343 32 385.8 30.3C428.7 28.7 471.3 28.3 514.2 29.8C557 31.3 600 34.7 642.8 35.2C685.7 35.7 728.3 33.3 771.2 33.3C814 33.3 857 35.7 878.5 36.8L900 38L900 0L878.5 0C857 0 814 0 771.2 0C728.3 0 685.7 0 642.8 0C600 0 557 0 514.2 0C471.3 0 428.7 0 385.8 0C343 0 300 0 257.2 0C214.3 0 171.7 0 128.8 0C86 0 43 0 21.5 0L0 0Z" fill="#444444"></path><path d="M0 33L21.5 32C43 31 86 29 128.8 28C171.7 27 214.3 27 257.2 25.7C300 24.3 343 21.7 385.8 22.7C428.7 23.7 471.3 28.3 514.2 30C557 31.7 600 30.3 642.8 28.8C685.7 27.3 728.3 25.7 771.2 26C814 26.3 857 28.7 878.5 29.8L900 31L900 0L878.5 0C857 0 814 0 771.2 0C728.3 0 685.7 0 642.8 0C600 0 557 0 514.2 0C471.3 0 428.7 0 385.8 0C343 0 300 0 257.2 0C214.3 0 171.7 0 128.8 0C86 0 43 0 21.5 0L0 0Z" fill="#3f3f3f"></path><path d="M0 17L21.5 17.2C43 17.3 86 17.7 128.8 17.8C171.7 18 214.3 18 257.2 18C300 18 343 18 385.8 18.3C428.7 18.7 471.3 19.3 514.2 20.5C557 21.7 600 23.3 642.8 22.5C685.7 21.7 728.3 18.3 771.2 17.8C814 17.3 857 19.7 878.5 20.8L900 22L900 0L878.5 0C857 0 814 0 771.2 0C728.3 0 685.7 0 642.8 0C600 0 557 0 514.2 0C471.3 0 428.7 0 385.8 0C343 0 300 0 257.2 0C214.3 0 171.7 0 128.8 0C86 0 43 0 21.5 0L0 0Z" fill="#3b3b3b"></path><path d="M0 11L21.5 11.2C43 11.3 86 11.7 128.8 12.7C171.7 13.7 214.3 15.3 257.2 15.5C300 15.7 343 14.3 385.8 13.8C428.7 13.3 471.3 13.7 514.2 13.2C557 12.7 600 11.3 642.8 11.8C685.7 12.3 728.3 14.7 771.2 15.2C814 15.7 857 14.3 878.5 13.7L900 13L900 0L878.5 0C857 0 814 0 771.2 0C728.3 0 685.7 0 642.8 0C600 0 557 0 514.2 0C471.3 0 428.7 0 385.8 0C343 0 300 0 257.2 0C214.3 0 171.7 0 128.8 0C86 0 43 0 21.5 0L0 0Z" fill="#373737"></path><path d="M0 7L21.5 7.5C43 8 86 9 128.8 9.5C171.7 10 214.3 10 257.2 9.7C300 9.3 343 8.7 385.8 8.2C428.7 7.7 471.3 7.3 514.2 7.8C557 8.3 600 9.7 642.8 9.2C685.7 8.7 728.3 6.3 771.2 6.3C814 6.3 857 8.7 878.5 9.8L900 11L900 0L878.5 0C857 0 814 0 771.2 0C728.3 0 685.7 0 642.8 0C600 0 557 0 514.2 0C471.3 0 428.7 0 385.8 0C343 0 300 0 257.2 0C214.3 0 171.7 0 128.8 0C86 0 43 0 21.5 0L0 0Z" fill="#333333"></path></svg>